<svg id="Group_31" data-name="Group 31" xmlns="http://www.w3.org/2000/svg" xmlns:xlink="http://www.w3.org/1999/xlink" width="26" height="26" viewBox="0 0 26 26">
  <defs>
    <clipPath id="clip-path">
      <rect id="Rectangle_89" data-name="Rectangle 89" width="26" height="26" fill="#101010"/>
    </clipPath>
  </defs>
  <g id="Group_30" data-name="Group 30" clip-path="url(#clip-path)">
    <path id="Path_54" data-name="Path 54" d="M25.35,4.42a6.287,6.287,0,0,0-1.495-2.275A6.287,6.287,0,0,0,21.58.65,9.6,9.6,0,0,0,18.395.065C17.03,0,16.575,0,13,0S9.035,0,7.6.065A9.948,9.948,0,0,0,4.42.65,6.287,6.287,0,0,0,2.145,2.145,6.287,6.287,0,0,0,.65,4.42,9.6,9.6,0,0,0,.065,7.6C0,8.97,0,9.425,0,13s0,3.965.065,5.395A9.948,9.948,0,0,0,.65,21.58a6.287,6.287,0,0,0,1.495,2.275A6.287,6.287,0,0,0,4.42,25.35a9.6,9.6,0,0,0,3.185.585C8.97,26,9.425,26,13,26s3.965,0,5.395-.065a9.948,9.948,0,0,0,3.185-.585,6.718,6.718,0,0,0,3.77-3.77,9.6,9.6,0,0,0,.585-3.185C26,17.03,26,16.575,26,13s0-3.965-.065-5.4A7.938,7.938,0,0,0,25.35,4.42M23.66,18.135A7,7,0,0,1,23.2,20.54a4.332,4.332,0,0,1-2.47,2.47,7,7,0,0,1-2.4.455c-1.365.065-1.755.065-5.265.065-3.445,0-3.9,0-5.265-.065a7,7,0,0,1-2.4-.455,4.575,4.575,0,0,1-1.5-.975,4.575,4.575,0,0,1-.975-1.5,7,7,0,0,1-.455-2.405C2.4,16.77,2.4,16.315,2.4,12.87s0-3.9.065-5.265a7,7,0,0,1,.455-2.4A4.575,4.575,0,0,1,3.9,3.7a4.575,4.575,0,0,1,1.5-.975,7,7,0,0,1,2.4-.455c1.365-.065,1.82-.065,5.265-.065s3.9,0,5.265.065a7,7,0,0,1,2.4.455,4.575,4.575,0,0,1,1.5.975A4.575,4.575,0,0,1,23.2,5.2a7,7,0,0,1,.455,2.4c.065,1.365.065,1.82.065,5.265,0,3.51,0,3.9-.065,5.265" fill="#101010"/>
    <path id="Path_55" data-name="Path 55" d="M16.5,9.6a6.695,6.695,0,1,0,6.695,6.695A6.685,6.685,0,0,0,16.5,9.6m0,10.985A4.355,4.355,0,1,1,20.85,16.23,4.355,4.355,0,0,1,16.5,20.585" transform="translate(-3.43 -3.36)" fill="#101010"/>
    <path id="Path_56" data-name="Path 56" d="M29.96,6.8A1.56,1.56,0,1,1,28.4,8.36,1.56,1.56,0,0,1,29.96,6.8" transform="translate(-9.94 -2.38)" fill="#101010"/>
  </g>
</svg>
