<svg xmlns="http://www.w3.org/2000/svg" width="26" height="26" viewBox="0 0 26 26">
  <g id="_4213462_communication_global_internet_network_web_icon" data-name="4213462_communication_global_internet_network_web_icon" transform="translate(-2 -2)">
    <path id="Path_59" data-name="Path 59" d="M15,28A13,13,0,1,0,2,15,13.011,13.011,0,0,0,15,28ZM4.935,20.179l5.284-.042a18.819,18.819,0,0,0,2.915,6.018A11.339,11.339,0,0,1,4.935,20.179Zm6.626-8.744h6.584a17.788,17.788,0,0,1,.042,6.982l-6.626.042A17.232,17.232,0,0,1,11.561,11.435Zm3.292,14.237a16.83,16.83,0,0,1-2.873-5.535l5.766-.042A17.715,17.715,0,0,1,14.853,25.673Zm1.677.545a18.488,18.488,0,0,0,2.956-6.144l5.64-.042A11.35,11.35,0,0,1,16.531,26.218ZM26.323,15a11.693,11.693,0,0,1-.5,3.355l-5.934.042a18.952,18.952,0,0,0-.042-6.961h5.892A11.145,11.145,0,0,1,26.323,15Zm-1.3-5.242H19.445a19.281,19.281,0,0,0-2.915-5.976A11.274,11.274,0,0,1,25.023,9.758Zm-7.318,0H12a17.324,17.324,0,0,1,2.852-5.431A17.324,17.324,0,0,1,17.7,9.758ZM13.134,3.845a18.631,18.631,0,0,0-2.873,5.913H4.977A11.283,11.283,0,0,1,13.134,3.845Zm-3.271,7.59a19.292,19.292,0,0,0-.021,7.024l-5.6.042A10.845,10.845,0,0,1,3.677,15a11.145,11.145,0,0,1,.587-3.565Z" fill="#101010"/>
  </g>
</svg>
