<svg xmlns="http://www.w3.org/2000/svg" xmlns:xlink="http://www.w3.org/1999/xlink" width="70.778" height="45" viewBox="0 0 70.778 45">
  <defs>
    <clipPath id="clip-path">
      <rect id="Rectangle_158" data-name="Rectangle 158" width="70.778" height="45" fill="none"/>
    </clipPath>
  </defs>
  <g id="Group_77" data-name="Group 77" transform="translate(70.778 45) rotate(180)" opacity="0.099">
    <g id="Group_72" data-name="Group 72" clip-path="url(#clip-path)">
      <path id="Path_75" data-name="Path 75" d="M526.413,45.519l-.835-.615a15.554,15.554,0,0,0,7.546-12.224c-.482-.161-.962-.313-1.437-.481a19.871,19.871,0,0,1-6.676-3.737,13.337,13.337,0,0,1-4.491-8.522,17.246,17.246,0,0,1,.946-8.888C523.52,6,527.094,2.476,532.457,1.128a15.146,15.146,0,0,1,12.911,2.153,15.823,15.823,0,0,1,6.435,9.813c.24,1.071.321,2.178.476,3.269.017.12.041.24.062.359v2.6a2.516,2.516,0,0,0-.063.324,21.8,21.8,0,0,1-2.37,8.761A31.328,31.328,0,0,1,528.835,45c-.778.193-1.565.349-2.347.522Z" transform="translate(-481.562 -0.519)"/>
      <path id="Path_76" data-name="Path 76" d="M0,15.682c.1-.71.15-1.429.294-2.13C1.582,7.277,5.166,2.852,11.279.861a14.985,14.985,0,0,1,13.756,1.91,15.5,15.5,0,0,1,6.393,9.67A23.063,23.063,0,0,1,28.1,30.511,31.362,31.362,0,0,1,7.072,44.786c-.1.019-.194.044-.291.062-.77.142-.872.112-1.514-.476a15.528,15.528,0,0,0,7.52-12.207c-.627-.214-1.249-.412-1.861-.639A18.516,18.516,0,0,1,3.785,27.09,13.511,13.511,0,0,1,.151,19.274C.1,18.87.05,18.467,0,18.063V15.682" transform="translate(0 0)"/>
    </g>
  </g>
</svg>
